<?xml version="1.0" standalone="no"?>
<!DOCTYPE svg PUBLIC "-//W3C//DTD SVG 20010904//EN"
 "http://www.w3.org/TR/2001/REC-SVG-20010904/DTD/svg10.dtd">
<svg version="1.0" xmlns="http://www.w3.org/2000/svg"
 width="1024.000000pt" height="1024.000000pt" viewBox="0 0 1024.000000 1024.000000"
 preserveAspectRatio="xMidYMid meet">
<metadata>
Created by potrace 1.14, written by Peter Selinger 2001-2017
</metadata>
<g transform="translate(0.000000,1024.000000) scale(0.100000,-0.100000)"
fill="#000000" stroke="none">
<path d="M5025 9379 c-41 -72 -73 -134 -70 -137 7 -7 294 -7 301 1 3 3 -5 22
-19 44 -13 21 -27 45 -31 53 -4 8 -12 24 -19 35 -7 11 -27 46 -45 78 -19 31
-35 57 -37 57 -2 0 -38 -59 -80 -131z"/>
<path d="M4755 8900 c-3 -5 -3 -10 2 -11 4 0 15 -2 23 -4 8 -2 29 -6 45 -9 17
-3 55 -13 85 -21 35 -9 58 -11 64 -5 6 6 7 10 3 10 -4 0 -42 9 -85 19 -121 30
-130 32 -137 21z"/>
<path d="M5391 8886 c-54 -13 -97 -28 -99 -36 -3 -8 1 -11 9 -8 8 3 58 15 112
28 53 12 95 26 91 31 -6 11 1 12 -113 -15z"/>
<path d="M4720 8831 c0 -6 10 -13 23 -16 12 -3 58 -14 102 -25 44 -10 83 -16
88 -11 5 5 -34 18 -85 31 -51 12 -101 24 -110 27 -10 2 -18 0 -18 -6z"/>
<path d="M5431 8815 c-108 -25 -139 -49 -39 -30 100 20 158 37 158 46 0 12 -7
11 -119 -16z"/>
<path d="M4675 8760 c-7 -11 208 -61 218 -50 5 4 -35 18 -90 31 -126 29 -122
29 -128 19z"/>
<path d="M5477 8746 c-92 -22 -116 -31 -106 -40 2 -2 42 4 88 14 124 27 131
29 131 40 0 12 5 13 -113 -14z"/>
<path d="M4635 8689 c-3 -4 4 -11 17 -13 13 -3 61 -15 107 -26 49 -12 88 -17
94 -11 8 8 -14 17 -72 27 -13 3 -50 11 -82 19 -33 7 -61 9 -64 4z"/>
<path d="M5609 8696 c-3 -3 -20 -8 -39 -11 -19 -3 -51 -10 -70 -14 -19 -5 -47
-12 -62 -15 -16 -4 -28 -11 -28 -16 0 -9 12 -8 95 11 101 22 125 30 125 39 0
10 -13 13 -21 6z"/>
<path d="M4595 8621 c-3 -6 4 -13 17 -16 13 -3 61 -14 107 -25 78 -18 103 -19
89 -5 -3 3 -43 15 -89 26 -46 11 -91 22 -101 25 -9 3 -19 0 -23 -5z"/>
<path d="M5630 8619 c-19 -5 -48 -11 -65 -14 -71 -14 -115 -28 -115 -37 0 -6
10 -8 22 -5 12 4 58 14 103 23 73 16 105 28 94 37 -2 2 -20 0 -39 -4z"/>
<path d="M4554 8549 c-2 -4 12 -13 33 -18 134 -36 201 -46 182 -27 -11 11
-210 53 -215 45z"/>
<path d="M5593 8533 c-57 -14 -103 -30 -103 -34 0 -12 1 -12 114 14 55 13 102
29 104 35 5 15 10 15 -115 -15z"/>
<path d="M4515 8480 c-6 -10 0 -12 119 -40 79 -18 109 -20 95 -5 -11 10 -210
52 -214 45z"/>
<path d="M5670 8469 c-66 -16 -109 -26 -132 -28 -5 -1 -8 -6 -8 -11 0 -12 16
-9 170 25 26 6 50 18 50 26 0 5 -1 9 -2 8 -2 0 -37 -9 -78 -20z"/>
<path d="M4475 8410 c-6 -10 6 -15 110 -40 98 -23 105 -24 105 -11 0 5 -24 14
-52 20 -84 18 -91 19 -125 30 -18 5 -35 6 -38 1z"/>
<path d="M5755 8409 c-16 -5 -44 -11 -61 -13 -17 -3 -42 -10 -55 -15 -27 -10
-33 -11 -54 -11 -8 0 -15 -5 -15 -11 0 -12 47 -6 133 17 12 3 34 8 50 11 25 5
44 20 36 27 -2 2 -17 -1 -34 -5z"/>
<path d="M5807 8344 c-3 -3 -45 -14 -93 -25 -48 -10 -93 -24 -99 -30 -7 -9 -1
-10 25 -6 33 6 73 15 95 21 6 2 29 7 53 11 40 7 52 18 33 29 -4 3 -11 3 -14 0z"/>
<path d="M4436 8331 c5 -6 43 -17 84 -26 115 -25 130 -27 130 -17 0 5 -42 18
-94 30 -104 24 -135 27 -120 13z"/>
<path d="M5859 8276 c-2 -3 -18 -8 -34 -11 -17 -3 -34 -7 -40 -9 -5 -1 -36 -8
-67 -15 -32 -7 -60 -17 -63 -22 -8 -13 -3 -12 113 13 67 14 102 26 102 35 0
13 -3 16 -11 9z"/>
<path d="M4390 8262 c0 -7 47 -18 198 -50 12 -2 22 0 22 5 0 5 -44 19 -97 31
-107 24 -123 26 -123 14z"/>
<path d="M5898 8205 c-3 -3 -47 -14 -99 -26 -51 -11 -95 -22 -98 -25 -17 -16
51 -11 129 11 3 1 22 5 43 9 21 5 37 14 37 22 0 15 -3 17 -12 9z"/>
<path d="M4350 8191 c0 -6 6 -11 13 -12 12 -1 23 -3 67 -13 114 -27 140 -30
140 -18 0 4 -33 15 -72 24 -121 28 -148 31 -148 19z"/>
<path d="M4310 8123 c0 -5 44 -19 98 -31 106 -24 122 -26 122 -14 0 7 -47 18
-197 50 -13 2 -23 0 -23 -5z"/>
<path d="M5828 8107 c-49 -11 -88 -26 -88 -32 0 -12 201 33 216 48 12 12 -36
6 -128 -16z"/>
<path d="M4270 8052 c0 -5 26 -15 58 -22 74 -18 73 -17 102 -23 14 -3 30 -7
35 -9 6 -1 12 1 15 6 6 10 -12 16 -116 40 -82 18 -94 19 -94 8z"/>
<path d="M5900 8044 c-30 -8 -65 -16 -77 -18 -12 -3 -30 -9 -40 -15 -16 -9
-15 -10 7 -10 39 0 212 44 204 52 -10 9 -28 8 -94 -9z"/>
<path d="M4230 7982 c0 -5 44 -20 98 -32 53 -12 99 -23 102 -24 3 0 6 3 8 8 2
6 -18 15 -43 21 -25 7 -45 10 -45 9 0 -2 -12 1 -26 7 -41 15 -94 21 -94 11z"/>
<path d="M5908 7965 c-48 -12 -90 -20 -93 -17 -3 4 -3 -1 0 -9 5 -14 19 -13
114 10 60 14 107 29 104 34 -6 11 -29 8 -125 -18z"/>
<path d="M4190 7911 c0 -7 97 -35 112 -32 2 0 24 -6 50 -14 26 -7 50 -10 53
-5 7 11 -12 17 -117 40 -102 23 -98 23 -98 11z"/>
<path d="M6049 7916 c-2 -2 -22 -6 -44 -10 -70 -10 -139 -32 -143 -44 -2 -7 2
-10 10 -7 7 2 24 7 38 10 109 23 170 40 170 47 0 8 -23 11 -31 4z"/>
<path d="M4150 7841 c0 -5 39 -18 88 -29 118 -28 118 -28 117 -17 0 5 -5 10
-11 11 -6 1 -50 11 -97 23 -98 24 -97 24 -97 12z"/>
<path d="M6001 7827 c-56 -13 -96 -28 -99 -36 -3 -8 0 -11 5 -8 5 3 22 8 37
11 90 16 176 39 176 47 0 12 -9 11 -119 -14z"/>
<path d="M4105 7770 c-3 -5 -3 -10 2 -11 15 -1 49 -8 131 -27 45 -11 85 -16
87 -11 6 9 -2 11 -100 34 -110 25 -113 26 -120 15z"/>
<path d="M6109 7771 c-8 -2 -47 -11 -88 -20 -41 -9 -76 -22 -79 -29 -2 -6 2
-10 10 -8 7 3 57 14 111 26 53 12 97 25 97 30 0 9 -26 10 -51 1z"/>
<path d="M4066 7701 c-5 -8 7 -13 69 -27 6 -1 24 -5 40 -8 17 -3 45 -10 62
-15 20 -6 35 -6 38 0 4 5 0 11 -7 13 -17 5 -94 23 -133 31 -16 3 -37 8 -47 11
-9 3 -19 0 -22 -5z"/>
<path d="M6140 7699 c-19 -6 -42 -11 -50 -13 -94 -17 -113 -23 -105 -35 2 -5
31 -2 62 5 32 8 67 16 78 18 52 11 75 19 75 27 0 11 -13 10 -60 -2z"/>
<path d="M4026 7632 c-7 -12 206 -63 217 -52 5 4 -33 18 -85 29 -51 12 -100
24 -110 27 -9 3 -19 1 -22 -4z"/>
<path d="M6150 7621 c-123 -29 -131 -31 -126 -40 3 -5 32 -2 63 5 32 8 72 16
88 19 48 9 65 16 65 26 0 11 3 11 -90 -10z"/>
<path d="M4856 7390 c-3 -14 -8 -61 -11 -105 -6 -86 -13 -161 -20 -240 -5 -53
-12 -138 -20 -244 -3 -36 -6 -66 -8 -67 -1 -1 -49 -5 -107 -8 -116 -7 -223
-15 -257 -21 -13 -2 -25 0 -27 4 -3 4 -8 90 -11 192 -4 101 -8 207 -10 234 -2
28 -4 92 -5 144 l-3 93 -77 -6 c-43 -4 -89 -9 -101 -11 -13 -2 -47 -6 -76 -9
-83 -9 -196 -36 -219 -51 -16 -10 -24 -29 -29 -67 -3 -29 -15 -116 -26 -193
-11 -77 -22 -158 -25 -180 -2 -22 -7 -51 -9 -65 -3 -14 -7 -43 -10 -65 -2 -22
-9 -74 -15 -115 -5 -41 -12 -91 -15 -110 -3 -19 -14 -100 -25 -180 -12 -80
-23 -163 -26 -185 -2 -22 -13 -101 -24 -175 -10 -74 -22 -157 -25 -185 -3 -27
-8 -61 -10 -75 -5 -26 -11 -77 -20 -149 -3 -23 -7 -47 -10 -52 -8 -12 27 -19
110 -22 l70 -2 2 -55 c1 -30 2 -60 2 -67 2 -19 90 -35 271 -48 47 -4 98 -8
113 -11 33 -5 60 8 107 53 19 18 41 33 48 33 6 0 12 3 12 8 0 4 -30 8 -68 10
-63 3 -94 14 -79 28 6 7 11 7 142 18 44 4 96 9 115 11 19 2 69 7 110 10 41 3
95 8 120 10 138 13 178 17 210 20 19 2 71 7 115 10 44 3 102 8 130 11 27 3 51
6 55 6 23 2 40 -4 40 -14 0 -18 -75 -46 -140 -53 -30 -3 -66 -8 -80 -10 -14
-2 -54 -6 -90 -10 -36 -4 -76 -8 -90 -10 -14 -2 -59 -6 -100 -10 -41 -4 -86
-8 -100 -10 -14 -2 -59 -7 -100 -10 -136 -11 -187 -31 -258 -100 -34 -34 -64
-60 -66 -58 -1 2 -3 -3 -3 -10 -1 -13 -60 -274 -118 -522 -20 -82 -38 -163
-41 -179 -3 -16 -7 -32 -9 -36 -2 -4 -7 -22 -10 -41 -3 -19 -17 -83 -31 -144
-14 -60 -28 -119 -30 -130 -2 -11 -53 -236 -114 -500 -61 -264 -112 -489 -114
-500 -3 -11 -25 -110 -50 -220 -26 -109 -48 -208 -50 -220 -13 -66 -17 -73
-54 -80 -21 -3 -111 -22 -202 -41 -91 -20 -176 -38 -190 -40 -14 -2 -36 -7
-50 -10 -14 -3 -34 -8 -44 -10 -24 -5 -11 12 -163 -194 -71 -96 -181 -245
-244 -330 l-115 -155 -100 -18 c-127 -22 -229 -41 -399 -73 -39 -8 -140 -26
-165 -30 -14 -3 -47 -9 -75 -14 -51 -10 -62 -12 -175 -31 -36 -6 -68 -14 -72
-18 -5 -4 6382 -6 6901 -2 86 1 89 6 11 16 -30 4 -58 9 -61 11 -3 2 -21 6 -40
9 -19 3 -79 14 -134 25 -55 10 -116 21 -135 24 -55 9 -94 16 -110 21 -8 3 -37
7 -64 10 -28 4 -53 8 -56 10 -4 2 -33 9 -66 14 -32 6 -68 12 -79 14 -11 2 -56
10 -99 18 l-80 14 -186 250 c-102 137 -208 281 -235 319 -28 37 -57 77 -65 87
-12 14 -78 32 -287 76 l-272 58 -11 50 c-6 28 -22 100 -36 160 -39 169 -59
261 -114 510 -28 127 -57 257 -65 290 -7 33 -20 94 -29 135 -9 41 -25 113 -36
160 -44 194 -91 401 -111 495 -12 55 -25 116 -29 135 -4 19 -15 69 -25 110 -9
41 -18 82 -20 90 -10 43 -78 346 -79 355 -2 6 -8 36 -15 68 -7 32 -10 62 -6
65 3 4 18 7 33 8 117 5 308 16 330 20 78 12 74 7 67 89 l-6 75 48 1 c26 1 67
1 91 2 l43 0 -6 51 c-3 28 -8 62 -10 76 -3 14 -7 46 -10 72 -3 26 -7 63 -10
82 -3 20 -7 53 -10 74 -3 20 -7 53 -10 72 -3 19 -7 56 -10 82 -3 26 -7 62 -10
80 -2 18 -14 105 -25 193 -27 209 -29 228 -35 273 -3 20 -7 57 -10 82 -7 57
-13 106 -26 200 -5 41 -12 89 -14 105 -2 17 -9 71 -15 120 -33 265 -26 241
-68 258 -33 13 -87 25 -147 32 -11 2 -38 5 -60 9 -38 5 -62 8 -192 21 -29 3
-53 2 -54 -2 0 -5 -2 -16 -4 -25 -3 -14 -8 -160 -20 -553 -2 -67 -3 -70 -26
-68 -13 1 -109 5 -213 8 -104 2 -191 6 -192 8 -2 2 -6 43 -9 93 -3 49 -7 109
-10 134 -2 25 -7 97 -10 160 -4 63 -9 128 -11 145 -2 16 -4 55 -5 87 -1 32 -5
59 -8 59 -3 1 -117 2 -253 3 l-247 1 -5 -25z m44 -891 c0 -5 -6 -10 -12 -11
-50 -6 -204 -15 -388 -23 -113 -5 -123 -4 -106 10 11 8 31 15 45 16 14 0 35 3
46 5 11 3 81 7 155 10 74 3 138 6 142 7 22 5 118 -6 118 -14z m658 -2 c67 -2
125 -7 128 -10 3 -2 -17 -8 -45 -12 -69 -9 -263 3 -278 18 -10 10 -4 12 30 10
23 -1 97 -4 165 -6z m-218 -876 c0 -4 -8 -15 -19 -25 -15 -13 -29 -15 -72 -9
-72 9 -409 9 -530 -1 -66 -5 -99 -4 -104 3 -3 6 0 11 7 12 24 1 152 19 183 25
11 3 58 4 105 4 78 1 114 -2 225 -15 23 -3 68 3 105 13 61 18 100 15 100 -7z
m-665 -291 c-11 -5 -29 -9 -40 -10 -11 0 -36 -9 -55 -20 -54 -29 -72 -36 -108
-43 l-32 -7 32 28 c49 42 100 59 183 60 31 0 35 -1 20 -8z m170 -1692 c-7 -24
-25 -74 -40 -113 -15 -38 -29 -80 -32 -92 -3 -13 -8 -23 -12 -23 -3 0 -33 22
-66 49 l-60 50 -12 -59 c-23 -109 -59 -148 -140 -151 -21 -1 -29 -4 -17 -6 11
-2 50 -28 86 -58 73 -61 103 -75 154 -75 31 0 37 -4 51 -37 18 -45 15 -80 -26
-250 l-18 -78 -199 -2 c-164 -2 -224 -7 -344 -28 -249 -45 -250 -45 -246 23 3
40 -7 71 -36 113 l-17 26 272 54 c150 29 274 54 277 54 3 1 25 5 50 10 25 5
48 8 52 7 3 -1 12 5 18 13 14 17 27 16 -173 17 l-138 1 23 26 c13 14 43 47 68
74 100 107 132 174 160 330 24 138 31 147 134 148 39 0 94 4 121 7 28 4 66 8
87 10 l36 2 -13 -42z m116 -917 c37 -30 28 -33 -130 -47 -40 -3 -80 -8 -90 -9
-9 -2 -21 -4 -28 -4 -29 -2 2 -28 47 -40 48 -12 49 -13 69 -74 26 -75 22 -79
-79 -75 -91 4 -136 24 -199 89 l-46 47 -35 -37 c-69 -73 -147 -109 -238 -112
-58 -2 -97 -21 -116 -57 -19 -38 -101 -360 -122 -484 -4 -23 0 -30 35 -48 23
-11 41 -22 41 -24 0 -2 -33 5 -72 15 -85 23 -98 24 -158 10 -84 -19 -215 -26
-505 -26 -207 0 -296 4 -310 12 -17 11 -12 13 35 13 139 2 198 22 232 79 12
20 23 38 24 40 2 2 15 -4 30 -14 30 -20 33 -18 65 55 64 142 156 313 199 370
55 73 63 110 28 134 -21 15 -19 17 58 52 43 20 86 38 94 40 108 26 145 33 200
39 36 4 72 9 80 10 8 1 53 6 100 10 47 4 96 8 110 10 14 1 68 6 120 10 52 4
111 9 130 10 19 2 96 7 170 10 74 4 137 9 139 11 14 13 101 2 122 -15z"/>
<path d="M2857 5673 c-3 -5 -16 -29 -31 -54 -27 -49 -25 -72 4 -37 l17 21 63
-37 c57 -33 90 -40 90 -19 0 4 -32 26 -70 47 -59 33 -68 42 -60 57 6 10 10 20
10 23 0 9 -18 7 -23 -1z"/>
<path d="M7288 5624 c-53 -31 -75 -50 -71 -60 7 -18 5 -18 46 6 31 18 35 19
41 4 7 -18 2 -29 -27 -62 -15 -16 -18 -25 -10 -33 12 -12 63 33 63 56 0 11 6
12 25 5 28 -11 55 9 55 40 0 15 -37 90 -44 90 -1 0 -36 -21 -78 -46z m93 -22
c12 -31 -20 -47 -51 -25 l-23 16 24 18 c29 22 39 20 50 -9z"/>
<path d="M2775 5524 c-8 -9 -22 -28 -29 -43 l-15 -27 79 -46 c43 -25 81 -43
84 -40 13 12 4 29 -25 46 -25 15 -28 20 -17 33 8 11 23 13 49 9 25 -4 40 -1
48 8 9 11 5 15 -20 20 -17 3 -43 6 -57 6 -14 0 -22 3 -19 6 3 4 2 15 -4 25
-12 23 -52 25 -74 3z m53 -27 c10 -11 6 -57 -4 -57 -2 0 -17 8 -33 18 -28 17
-29 19 -14 35 21 20 37 22 51 4z"/>
<path d="M7385 5498 c-27 -17 -60 -37 -72 -45 l-23 -13 26 -43 c33 -52 33 -52
40 -45 3 4 -2 20 -11 38 -15 30 -15 33 2 46 26 20 38 17 53 -11 8 -15 17 -22
23 -16 5 5 3 19 -7 33 -15 24 -15 25 11 39 18 10 27 11 30 3 7 -22 31 -49 38
-42 9 8 -37 88 -50 87 -5 0 -32 -14 -60 -31z"/>
<path d="M7477 5397 c-9 -7 -17 -28 -18 -47 -1 -19 -4 -43 -6 -52 -7 -29 -41
-21 -58 12 -9 17 -20 28 -25 25 -11 -7 2 -38 28 -67 37 -43 93 -6 86 57 -5 55
34 68 53 18 5 -13 13 -19 19 -15 18 11 -2 49 -34 66 -23 12 -33 13 -45 3z"/>
<path d="M2679 5363 c-13 -15 -14 -13 74 -110 36 -40 49 -49 54 -38 3 9 -3 25
-12 35 -16 17 -16 24 -5 45 10 19 18 23 40 18 25 -5 50 11 37 23 -3 3 -44 13
-91 23 -73 15 -88 16 -97 4z m99 -38 c5 -4 -10 -35 -17 -35 -4 0 -18 12 -32
26 l-24 26 35 -7 c19 -4 36 -8 38 -10z"/>
<path d="M7515 5248 c-38 -22 -72 -42 -74 -44 -2 -2 -1 -10 3 -19 5 -15 10
-14 40 5 l35 21 11 -21 c22 -40 81 -46 101 -9 7 14 5 31 -10 64 -11 25 -24 45
-28 45 -4 0 -39 -19 -78 -42z m93 -22 c6 -27 -25 -48 -49 -35 -24 12 -24 28
-1 45 23 18 46 13 50 -10z"/>
<path d="M2594 5215 c-3 -8 4 -28 15 -44 12 -16 21 -32 21 -35 0 -3 -20 -6
-44 -6 -28 0 -46 -5 -49 -14 -4 -10 8 -14 55 -15 42 -1 71 -8 93 -21 29 -18
33 -18 39 -4 8 22 9 20 -24 34 -19 8 -41 31 -61 66 -33 58 -37 62 -45 39z"/>
<path d="M7635 5139 c-22 -12 -47 -27 -56 -35 -8 -8 -20 -14 -26 -14 -6 0 -16
-6 -22 -14 -10 -12 -8 -23 11 -55 13 -23 29 -41 37 -41 11 0 10 5 -3 25 -22
33 -20 48 6 64 19 12 23 11 35 -5 7 -10 13 -21 13 -26 0 -4 7 -8 16 -8 13 0
13 4 -3 31 -18 30 -17 31 2 45 18 14 22 12 47 -18 34 -41 37 -18 5 34 l-22 38
-40 -21z"/>
<path d="M2505 5059 c-5 -14 7 -35 40 -73 l46 -54 -38 8 c-89 20 -111 20 -117
3 -4 -9 -5 -17 -4 -18 56 -43 135 -95 145 -95 25 0 13 26 -22 44 -19 11 -41
26 -47 34 -11 12 -8 14 17 8 70 -14 105 -15 105 -2 0 7 -18 34 -41 60 -22 25
-38 46 -34 46 5 0 90 -37 106 -46 4 -2 10 3 13 11 4 10 -2 19 -17 24 -12 5
-50 22 -84 39 -59 28 -63 29 -68 11z"/>
<path d="M7653 4999 c-41 -26 -52 -73 -29 -118 9 -17 21 -31 26 -31 13 0 12 4
-1 34 -16 33 -5 70 27 90 33 23 81 13 96 -20 6 -13 15 -21 19 -18 16 9 10 25
-20 55 -35 35 -72 37 -118 8z"/>
<path d="M7800 4918 c0 -7 4 -19 9 -27 7 -11 -4 -22 -43 -46 -29 -17 -60 -35
-69 -38 -10 -4 -17 -11 -17 -16 0 -24 25 -20 81 13 69 41 75 42 87 20 5 -9 14
-14 20 -10 8 4 1 24 -19 56 -33 53 -49 69 -49 48z"/>
<path d="M2352 4800 c-12 -21 -22 -43 -22 -49 0 -9 134 -91 148 -91 4 0 19 21
34 45 19 31 23 45 14 45 -8 0 -21 -11 -30 -25 -19 -29 -25 -30 -52 -11 -18 14
-18 15 -1 45 17 30 14 39 -9 23 -6 -4 -13 -15 -17 -24 -8 -21 -16 -22 -41 -3
-18 14 -18 15 -1 41 9 14 13 30 8 35 -4 4 -18 -9 -31 -31z"/>
<path d="M7808 4747 c-38 -23 -68 -46 -68 -52 0 -19 53 -90 58 -77 2 7 -4 24
-13 38 -16 24 -15 26 2 40 26 19 34 17 60 -13 25 -31 33 -11 9 22 -12 17 -12
21 3 32 24 19 37 16 49 -12 11 -25 32 -34 32 -15 0 17 -44 80 -55 79 -5 0 -40
-19 -77 -42z"/>
<path d="M2298 4703 c-38 -45 -23 -109 32 -138 47 -25 75 -19 109 22 38 46 29
66 -11 23 -23 -26 -34 -31 -56 -25 -15 3 -38 17 -52 30 -23 23 -23 27 -11 61
15 41 11 52 -11 27z"/>
<path d="M7880 4629 c-36 -21 -66 -45 -68 -53 -5 -24 50 -77 83 -80 51 -6 101
28 108 75 5 29 -28 99 -46 98 -6 0 -41 -18 -77 -40z m98 -23 c12 -60 -83 -106
-127 -61 -14 14 -14 17 -1 25 8 5 33 20 55 34 46 28 68 29 73 2z"/>
<path d="M2217 4567 c-3 -9 23 -30 74 -59 62 -37 80 -43 89 -33 11 13 1 20
-107 81 -49 28 -49 28 -56 11z"/>
<path d="M2168 4480 c-32 -57 -36 -86 -9 -53 l18 22 68 -40 c62 -36 85 -41 85
-19 0 5 -29 26 -65 47 -61 35 -65 40 -59 65 9 43 -8 33 -38 -22z"/>
<path d="M8005 4428 c-38 -22 -72 -43 -74 -45 -7 -5 30 -66 48 -80 33 -26 86
-6 79 28 -2 9 4 13 14 11 29 -5 56 16 54 40 -3 27 -33 88 -44 88 -4 0 -38 -19
-77 -42z m93 -26 c4 -29 -24 -40 -46 -18 -16 16 -16 18 3 32 24 18 39 13 43
-14z m-65 -31 c5 -22 -9 -51 -27 -51 -13 0 -52 38 -45 44 12 10 45 25 55 26 7
0 14 -8 17 -19z"/>
<path d="M2105 4374 c-23 -49 -11 -91 35 -122 42 -28 86 -24 118 13 19 23 30
55 18 55 -3 0 -18 -13 -34 -30 -27 -27 -33 -29 -61 -19 -17 6 -40 22 -51 36
-18 23 -18 27 -4 55 10 19 12 34 6 40 -6 6 -16 -5 -27 -28z"/>
<path d="M8123 4300 c-16 -28 -41 -57 -60 -67 -35 -19 -37 -21 -25 -40 6 -9
15 -7 37 7 20 13 47 20 80 20 57 0 91 14 62 26 -9 3 -34 4 -56 2 l-39 -3 24
35 c26 37 30 55 15 65 -5 3 -22 -17 -38 -45z"/>
<path d="M2015 4220 c-7 -12 4 -29 72 -105 42 -47 54 -55 59 -41 4 10 -1 25
-11 36 -15 17 -16 24 -6 43 10 19 19 22 47 19 25 -3 34 0 34 10 0 11 -25 20
-84 31 -99 20 -103 20 -111 7z m86 -30 c21 0 23 -8 9 -30 -8 -13 -14 -10 -37
14 -20 21 -23 27 -10 22 10 -3 27 -6 38 -6z"/>
<path d="M1948 4093 c-9 -10 -21 -29 -28 -42 -15 -28 -13 -30 91 -88 48 -28
58 -30 63 -17 4 10 -4 21 -24 32 -45 26 -35 48 22 45 32 -2 48 2 51 11 4 10
-5 16 -33 21 -22 4 -44 4 -50 0 -5 -3 -10 2 -10 12 0 42 -54 58 -82 26z m51
-22 c9 -6 11 -18 7 -35 -6 -26 -7 -26 -36 -11 -26 13 -29 19 -20 35 12 22 27
25 49 11z"/>
<path d="M8195 4091 c-77 -16 -100 -35 -42 -37 17 0 34 -9 43 -23 15 -21 15
-24 -5 -45 -18 -19 -19 -25 -8 -34 19 -16 141 126 125 145 -13 16 -13 16 -113
-6z m59 -36 c-18 -27 -37 -28 -42 -2 -3 14 4 17 51 26 4 0 0 -10 -9 -24z"/>
<path d="M8340 3992 c-30 -14 -130 -74 -130 -78 0 -8 31 -68 42 -81 21 -26 26
-1 8 30 l-20 33 70 40 c64 35 80 54 54 60 -5 1 -16 -1 -24 -4z"/>
<path d="M1882 3964 c-20 -14 -58 -72 -50 -79 2 -1 25 -14 51 -29 26 -14 59
-33 72 -42 23 -15 45 -12 45 6 0 5 -13 16 -29 24 -28 15 -28 16 -17 57 10 38
9 43 -13 60 -28 23 -31 23 -59 3z m35 -22 c6 -4 12 -14 13 -22 7 -44 -9 -51
-48 -24 -22 15 -22 17 -6 35 19 21 24 22 41 11z"/>
<path d="M8360 3849 c-36 -23 -69 -45 -74 -49 -9 -9 32 -90 46 -90 13 0 10 18
-7 44 -16 23 -15 24 54 67 43 27 67 47 64 56 -7 19 -11 17 -83 -28z"/>
<path d="M1775 3771 c-11 -5 -30 -26 -42 -48 l-22 -39 79 -46 79 -47 14 22
c21 33 28 73 17 101 -16 43 -84 74 -125 57z m66 -44 c33 -22 46 -53 35 -82 -4
-11 -20 -6 -70 23 l-65 37 21 22 c27 29 37 29 79 0z"/>
<path d="M8448 3673 c-59 -29 -75 -41 -69 -52 7 -11 18 -9 56 13 27 14 50 24
53 22 2 -3 -13 -26 -33 -51 -45 -54 -39 -67 25 -55 82 16 88 12 33 -25 -36
-24 -50 -40 -47 -50 7 -18 12 -19 29 -2 7 6 39 30 69 51 80 56 76 81 -9 65
-91 -18 -100 -19 -90 -12 24 19 85 103 85 117 0 24 -17 20 -102 -21z"/>
<path d="M1676 3635 c-3 -9 14 -25 49 -45 30 -17 55 -33 55 -36 0 -2 -32 -3
-70 -1 -51 3 -73 0 -81 -10 -14 -16 -20 -11 69 -63 53 -30 77 -39 85 -31 13
13 15 11 -53 50 l-55 31 83 0 c96 0 107 14 40 53 -110 64 -116 66 -122 52z"/>
<path d="M8581 3481 c-35 -22 -68 -44 -73 -49 -12 -12 31 -92 50 -92 10 0 8 9
-7 34 l-21 34 27 17 c25 17 27 17 39 0 7 -10 15 -23 17 -29 2 -6 8 -8 12 -4 5
5 3 20 -4 35 -11 23 -10 29 5 40 25 18 29 17 42 -12 6 -14 18 -25 27 -25 11 0
8 10 -13 45 -15 25 -29 45 -32 45 -3 -1 -34 -18 -69 -39z"/>
<path d="M1566 3434 c-6 -15 0 -25 39 -70 65 -74 78 -85 88 -75 7 7 6 16 -6
29 -33 37 -11 76 39 70 15 -2 29 2 31 9 5 13 -13 19 -71 29 -22 3 -50 10 -63
15 -35 13 -50 11 -57 -7z m101 -34 c1 0 0 -7 -3 -15 -9 -22 -30 -18 -48 9
l-15 24 32 -9 c17 -5 33 -9 34 -9z"/>
<path d="M8648 3360 c-72 -43 -83 -54 -73 -70 4 -7 17 -3 33 8 15 11 43 27 62
37 34 17 35 17 19 -1 -32 -38 -69 -116 -61 -130 6 -10 25 -3 85 32 42 26 77
52 77 60 0 20 -10 18 -61 -14 -24 -15 -49 -31 -56 -35 -6 -4 6 24 29 62 35 62
42 91 20 91 -4 0 -37 -18 -74 -40z"/>
<path d="M1458 3254 c-10 -19 -18 -39 -18 -44 0 -9 149 -95 154 -89 23 28 53
89 46 94 -6 4 -18 -7 -28 -24 -19 -34 -28 -37 -55 -17 -17 13 -17 16 -2 45 12
25 13 31 2 31 -8 0 -19 -11 -25 -24 -8 -18 -16 -23 -32 -19 -29 8 -33 20 -16
45 19 27 20 38 4 38 -7 0 -21 -16 -30 -36z"/>
<path d="M1391 3134 c-13 -25 -21 -46 -20 -48 2 -1 37 -22 78 -45 57 -32 76
-39 82 -29 9 14 -26 47 -49 48 -9 0 -9 8 4 31 10 20 12 35 6 41 -6 6 -14 -2
-22 -21 -14 -35 -14 -35 -41 -21 -20 11 -26 45 -9 55 12 7 13 35 2 35 -5 0
-19 -21 -31 -46z"/>
<path d="M8758 3132 c-46 -10 -68 -20 -68 -30 0 -11 8 -13 34 -9 28 4 36 2 46
-19 11 -20 11 -27 -5 -44 -10 -12 -15 -26 -11 -37 6 -14 14 -9 49 32 23 27 52
60 65 74 44 48 6 60 -110 33z m72 -31 c-15 -28 -31 -36 -41 -20 -16 26 -13 28
44 38 4 0 3 -8 -3 -18z"/>
<path d="M1335 3040 c-9 -15 -7 -17 78 -66 70 -41 87 -45 87 -21 0 9 -98 70
-152 95 -3 2 -9 -2 -13 -8z"/>
<path d="M8860 3004 c-89 -54 -86 -52 -73 -65 7 -7 25 -1 58 20 27 17 50 29
52 27 4 -4 -24 -57 -52 -99 -9 -14 -11 -27 -6 -36 7 -11 25 -4 91 34 56 33 78
51 71 58 -12 12 -33 3 -90 -35 l-35 -22 39 72 c25 46 36 75 30 81 -7 6 -37 -7
-85 -35z"/>
<path d="M1265 2919 c-8 -13 -11 -10 50 -44 28 -15 59 -34 70 -41 34 -25 41
-19 83 69 2 4 -3 7 -12 7 -9 0 -16 -6 -16 -14 0 -7 -6 -19 -14 -25 -12 -10
-25 -7 -63 14 -26 15 -52 31 -57 36 -13 12 -33 11 -41 -2z"/>
<path d="M8942 2843 l-73 -45 17 -27 c38 -61 78 -75 134 -46 53 27 64 77 30
133 -11 17 -23 32 -27 31 -5 0 -41 -21 -81 -46z m102 -15 c7 -29 -21 -69 -58
-81 -32 -11 -76 4 -76 25 0 11 103 77 121 78 4 0 9 -10 13 -22z"/>
<path d="M1205 2821 c-3 -6 6 -28 20 -51 l25 -40 -50 0 c-36 0 -50 -4 -50 -14
0 -10 15 -14 56 -15 37 0 68 -7 90 -21 32 -18 35 -18 41 -3 4 9 2 18 -5 21
-26 8 -64 46 -82 82 -22 43 -36 55 -45 41z"/>
<path d="M9075 2647 c-72 -43 -79 -50 -73 -68 4 -11 19 -4 110 50 35 21 54 40
51 48 -7 18 -10 18 -88 -30z"/>
<path d="M1116 2663 c-6 -15 20 -59 49 -83 18 -15 42 -56 27 -47 -5 4 -27 9
-48 12 -21 2 -49 7 -61 9 -12 3 -27 -1 -33 -9 -11 -13 -11 -14 97 -92 34 -25
49 -28 57 -14 4 5 -20 26 -51 46 l-58 37 45 -7 c25 -3 57 -8 73 -11 39 -8 35
13 -15 76 l-41 52 61 -31 c40 -20 63 -27 68 -20 9 16 -2 24 -88 63 -64 29 -77
32 -82 19z"/>
<path d="M9102 2573 c-54 -33 -71 -48 -63 -56 8 -8 17 -8 29 -1 9 6 34 21 55
33 l38 23 -37 -66 c-53 -96 -42 -106 53 -50 93 55 89 52 76 65 -8 8 -27 1 -68
-26 l-57 -36 32 58 c18 32 36 62 41 67 10 11 0 36 -15 35 -6 0 -44 -21 -84
-46z"/>
<path d="M986 2434 c-4 -11 3 -32 19 -56 l27 -40 -46 6 c-37 5 -47 3 -55 -12
-9 -17 -5 -18 47 -17 38 0 67 -5 87 -17 17 -10 36 -18 43 -18 24 0 11 27 -23
46 -19 10 -39 30 -45 44 -6 14 -19 38 -29 53 -16 24 -19 26 -25 11z"/>
<path d="M9329 2375 c-3 -2 -16 -6 -29 -8 -14 -2 -53 -10 -88 -17 -64 -15 -79
-35 -24 -35 19 0 37 -7 46 -20 12 -17 12 -23 -5 -47 -14 -19 -16 -29 -8 -34
14 -8 128 114 129 138 0 17 -13 31 -21 23z m-40 -61 c-22 -24 -24 -24 -37 -7
-11 15 -10 19 5 25 10 3 27 7 37 7 18 1 18 -1 -5 -25z"/>
<path d="M920 2282 c-32 -10 -50 -36 -50 -72 0 -23 7 -43 18 -52 23 -21 74
-45 90 -42 6 1 16 2 22 3 19 2 50 46 50 70 -1 30 -14 50 -50 72 -31 19 -60 27
-80 21z m56 -48 c19 -9 40 -26 46 -37 9 -17 7 -24 -11 -38 -25 -20 -42 -17
-88 18 -31 22 -42 51 -26 66 11 12 43 8 79 -9z"/>
<path d="M9335 2230 c-33 -21 -66 -39 -72 -39 -7 -1 -13 -6 -13 -12 0 -21 44
-89 57 -89 9 0 6 10 -8 34 l-19 33 24 17 c14 9 28 16 31 16 3 0 23 12 45 26
24 16 37 31 33 40 -7 19 -9 18 -78 -26z"/>
<path d="M817 2143 c-14 -13 -5 -22 59 -58 62 -35 66 -39 60 -66 -7 -36 11
-38 25 -3 15 40 4 56 -65 97 -70 40 -70 40 -79 30z"/>
<path d="M9395 2109 c-38 -22 -72 -43 -75 -45 -6 -6 43 -94 52 -94 13 0 9 19
-9 47 -10 15 -13 28 -8 30 32 11 135 85 130 93 -9 15 -15 13 -90 -31z"/>
<path d="M765 2049 c-9 -14 -1 -21 60 -53 l50 -26 -65 -1 c-36 -1 -70 -1 -76
0 -6 1 -16 -5 -22 -12 -16 -18 137 -110 156 -94 11 8 5 15 -25 33 -84 49 -84
51 -6 47 52 -2 73 0 82 11 11 14 -21 37 -141 103 -4 2 -10 -2 -13 -8z"/>
<path d="M9540 2004 c0 -3 5 -14 10 -24 11 -20 13 -18 -102 -89 -19 -11 -24
-21 -19 -30 7 -10 24 -4 81 29 57 34 74 39 81 29 5 -8 9 -18 9 -23 0 -6 5 -5
11 1 7 7 1 25 -21 62 -27 44 -50 65 -50 45z"/>
<path d="M660 1870 c-11 -23 -18 -45 -15 -50 3 -4 37 -27 75 -49 l70 -40 25
37 c14 20 25 42 25 49 0 20 -18 15 -25 -6 -11 -35 -30 -43 -56 -22 -22 18 -22
19 -6 44 9 14 13 29 8 32 -6 3 -17 -8 -27 -24 -16 -28 -19 -28 -40 -14 -22 14
-23 17 -9 43 18 34 18 40 5 40 -5 0 -19 -18 -30 -40z"/>
<path d="M9562 1836 c-41 -24 -74 -46 -74 -50 1 -27 16 -24 81 15 78 46 88 56
74 70 -5 5 -39 -10 -81 -35z"/>
<path d="M9596 1764 c-81 -40 -83 -41 -70 -54 7 -7 30 1 70 22 56 30 58 30 39
7 -11 -13 -22 -26 -25 -29 -3 -3 -16 -20 -29 -38 -29 -41 -17 -46 67 -29 34 8
62 12 62 10 0 -1 -25 -19 -55 -39 -43 -29 -53 -40 -44 -50 8 -10 25 -3 80 37
79 58 83 63 66 77 -12 10 -30 8 -125 -13 -23 -6 -23 -5 5 32 15 21 36 46 45
57 17 19 14 46 -6 45 -6 0 -42 -16 -80 -35z"/>
<path d="M572 1717 c-9 -10 6 -24 70 -61 62 -36 83 -44 89 -34 10 15 6 20 -46
48 -22 12 -54 31 -71 41 -26 16 -34 17 -42 6z"/>
<path d="M517 1623 c-12 -12 -7 -34 13 -60 28 -36 25 -41 -22 -37 -37 4 -57
-5 -58 -26 0 -3 26 -5 57 -4 40 0 68 -6 90 -19 30 -17 53 -16 53 2 0 4 -15 16
-33 26 -21 11 -45 38 -64 72 -16 29 -32 50 -36 46z"/>
<path d="M9718 1567 c-36 -23 -69 -45 -73 -49 -8 -8 42 -88 55 -88 15 0 12 9
-10 40 l-20 28 25 16 c30 20 45 20 45 2 0 -14 28 -42 35 -34 2 2 -3 17 -11 33
-14 27 -14 31 2 42 26 19 32 16 49 -17 9 -17 20 -28 26 -25 9 6 -33 88 -48 92
-4 1 -38 -17 -75 -40z"/>
<path d="M6881 1457 c-18 -50 -39 -105 -46 -122 -7 -16 -50 -126 -96 -243 -86
-221 -106 -255 -160 -266 -57 -11 -166 -7 -177 7 -8 9 -12 115 -13 322 -1 291
0 309 19 327 16 17 34 24 65 27 4 1 7 6 7 11 0 6 -50 10 -130 10 -80 0 -130
-4 -130 -10 0 -5 9 -10 19 -10 10 0 29 -9 42 -19 l24 -19 -1 -322 0 -323 -23
-18 c-13 -11 -32 -19 -42 -19 -10 0 -19 -4 -19 -10 0 -6 102 -10 285 -10 167
0 285 4 285 9 0 5 -15 15 -34 21 -34 11 -47 26 -42 51 4 22 16 62 26 84 5 11
18 42 29 70 l19 50 107 0 c58 0 110 -2 114 -5 11 -7 81 -191 81 -211 0 -20
-18 -35 -44 -40 -11 -2 -21 -10 -24 -16 -3 -10 41 -13 198 -13 155 0 201 3
198 12 -3 7 -13 13 -24 14 -46 2 -54 5 -66 27 -14 26 -19 539 -4 530 4 -3 25
-24 45 -47 20 -22 61 -68 91 -101 162 -178 238 -261 260 -285 14 -14 51 -56
84 -93 32 -37 65 -67 72 -67 12 0 14 59 14 349 0 397 -2 387 79 397 53 6 98
-10 108 -40 10 -32 11 -608 0 -633 -10 -22 -53 -43 -88 -43 -11 0 -19 -5 -19
-10 0 -17 423 -11 490 6 139 37 228 119 264 245 50 179 -12 364 -148 444 -80
47 -140 53 -507 55 -197 0 -339 -3 -339 -8 0 -5 18 -12 39 -16 67 -10 69 -16
70 -294 l1 -247 -41 45 c-23 25 -81 87 -128 139 -47 52 -111 122 -142 155 -31
34 -89 98 -130 143 l-74 82 -102 1 c-56 0 -104 -4 -107 -8 -3 -5 15 -13 39
-20 25 -6 59 -24 76 -40 l32 -28 -1 -297 c0 -293 -5 -339 -33 -321 -19 11 -58
106 -174 417 -66 174 -124 317 -130 317 -5 0 -25 -42 -44 -93z m1526 13 c119
-39 193 -148 201 -296 11 -208 -103 -352 -286 -359 -37 -2 -81 1 -97 6 l-30 8
0 315 c0 173 3 318 7 322 22 22 142 24 205 4z m-1414 -369 c-7 -10 -183 -5
-183 5 0 5 16 50 35 100 63 157 51 155 104 19 26 -66 46 -122 44 -124z"/>
<path d="M1570 1522 c0 -4 19 -12 42 -18 67 -15 68 -18 67 -360 0 -338 0 -337
-69 -349 -86 -15 -34 -25 125 -25 156 0 211 10 127 24 -65 10 -70 22 -72 184
0 92 3 142 10 143 65 6 59 11 193 -174 l129 -177 184 0 c116 0 184 4 184 10 0
6 -3 10 -7 11 -99 9 -105 19 -105 170 0 68 0 135 1 149 l1 25 163 -1 c89 -1
167 -2 174 -3 8 -1 11 -42 10 -151 -2 -178 -3 -180 -99 -189 -5 -1 -8 -5 -8
-11 0 -6 62 -10 165 -10 156 0 211 10 127 24 -75 12 -74 6 -74 358 0 308 0
312 22 330 12 9 37 20 56 24 77 14 24 24 -131 24 -103 0 -165 -4 -165 -10 0
-5 9 -10 20 -10 30 0 78 -27 84 -47 2 -10 4 -78 4 -150 l-1 -133 -173 0 c-132
0 -174 3 -175 13 -1 6 -1 67 -1 135 1 145 9 166 72 177 86 15 34 25 -125 25
-103 0 -165 -4 -165 -10 0 -5 9 -10 20 -10 37 0 78 -28 84 -57 8 -41 4 -610
-4 -623 -13 -20 -47 -1 -88 48 -64 77 -175 235 -176 250 -1 8 14 20 32 26 185
64 179 304 -10 361 -50 14 -448 21 -448 7z m389 -59 c40 -26 53 -41 66 -80 39
-113 -39 -210 -175 -218 l-60 -4 0 159 0 159 28 3 c52 6 116 -2 141 -19z"/>
<path d="M3237 1506 c-72 -30 -117 -64 -167 -127 -48 -61 -71 -130 -75 -226
-8 -166 68 -311 197 -376 179 -91 392 -27 492 146 50 85 67 247 38 342 -28 91
-109 185 -198 230 -80 41 -203 45 -287 11z m228 -43 c48 -25 66 -44 95 -101
45 -92 60 -286 29 -393 -35 -120 -124 -193 -231 -188 -88 4 -144 41 -187 125
-71 136 -57 392 26 501 58 76 179 101 268 56z"/>
<path d="M3710 1522 c0 -5 18 -12 39 -16 68 -11 68 -9 67 -360 -1 -242 -4
-317 -14 -329 -7 -8 -31 -18 -53 -22 -21 -4 -39 -11 -39 -16 0 -13 398 -11
462 2 195 40 312 191 302 390 -4 77 -10 103 -37 162 -47 100 -132 165 -247
185 -70 13 -480 16 -480 4z m407 -46 c124 -22 219 -148 227 -302 12 -225 -133
-377 -340 -359 -38 4 -70 8 -72 10 -5 5 -3 635 2 643 2 4 22 9 42 10 21 2 40
4 42 6 4 4 45 1 99 -8z"/>
<path d="M4470 1521 c0 -5 16 -12 35 -15 27 -5 36 -13 42 -34 4 -15 7 -166 7
-336 l0 -308 -23 -19 c-13 -10 -32 -19 -42 -19 -10 0 -19 -4 -19 -10 0 -6 82
-10 225 -10 226 0 233 1 224 33 0 1 4 14 10 30 6 15 13 39 15 53 10 53 15 34
13 -45 -2 -88 7 -134 18 -94 10 31 26 34 76 11 148 -66 278 22 279 188 0 108
-32 155 -178 258 -45 31 -90 70 -101 85 -57 80 -13 191 75 191 59 0 125 -67
139 -141 12 -62 17 -80 23 -74 9 8 9 265 1 265 -4 0 -13 -10 -21 -22 l-15 -23
-51 24 c-90 42 -169 18 -219 -67 -22 -36 -27 -58 -27 -111 0 -107 32 -150 207
-281 33 -24 66 -59 76 -79 41 -85 -1 -177 -86 -187 -76 -9 -152 64 -167 160
-4 21 -9 43 -12 48 -3 5 -23 -23 -44 -64 -51 -98 -68 -109 -173 -115 -92 -4
-116 6 -118 50 -1 30 -1 215 0 252 l1 30 73 0 c39 -1 82 -4 94 -9 24 -8 39
-38 42 -86 0 -11 6 -20 11 -20 6 0 10 50 9 135 0 133 -10 173 -23 96 -9 -57
-34 -71 -128 -71 -67 0 -78 2 -79 18 -4 80 0 262 5 271 10 16 174 13 208 -5
25 -13 48 -61 48 -101 0 -7 3 -13 8 -13 4 0 7 38 7 85 l0 85 -222 0 c-124 0
-223 -4 -223 -9z"/>
<path d="M5480 1515 c0 -8 6 -12 13 -10 29 11 72 -11 82 -42 6 -19 10 -152 10
-333 l-1 -302 -24 -18 c-13 -10 -36 -17 -52 -16 -17 1 -28 -3 -28 -11 0 -10
36 -13 165 -13 139 0 164 2 159 14 -3 8 -12 12 -20 9 -27 -10 -74 18 -82 49
-9 37 -8 595 1 624 8 24 46 44 82 44 14 0 25 5 25 10 0 6 -62 10 -165 10 -138
0 -165 -2 -165 -15z"/>
<path d="M5954 1520 c-67 -27 -115 -121 -107 -210 8 -95 33 -128 179 -238 96
-72 118 -103 119 -157 0 -84 -54 -142 -122 -131 -16 2 -33 5 -40 5 -6 1 -27
16 -47 35 -33 33 -66 111 -66 158 0 10 -4 18 -10 18 -6 0 -10 -52 -10 -136 0
-87 4 -133 10 -129 6 3 10 12 10 20 0 23 23 23 85 0 88 -32 154 -23 203 28 78
80 89 207 25 299 -14 21 -74 73 -134 117 -120 89 -145 124 -133 190 10 50 53
91 97 91 71 0 121 -56 150 -169 8 -30 16 -50 20 -45 7 12 8 264 1 264 -3 0
-14 -10 -23 -22 l-18 -22 -51 22 c-52 23 -101 27 -138 12z"/>
<path d="M9810 1460 c-6 -12 -9 -34 -6 -50 3 -20 -1 -36 -12 -46 -15 -15 -18
-14 -38 9 -12 14 -24 32 -27 39 -2 7 -8 10 -12 6 -16 -15 26 -83 55 -89 8 -2
25 0 37 5 18 6 22 16 25 59 2 40 7 53 20 55 11 2 22 -6 29 -22 7 -14 16 -26
21 -26 15 0 8 27 -13 54 -25 31 -64 34 -79 6z"/>
<path d="M416 1452 c-15 -15 0 -43 58 -106 47 -51 64 -65 69 -53 3 8 -3 25
-13 37 -17 20 -18 24 -5 44 11 17 22 21 44 18 19 -2 30 1 34 11 4 12 -8 18
-56 26 -34 6 -76 15 -94 20 -17 5 -34 7 -37 3z m97 -52 c4 -4 2 -12 -6 -18
-11 -9 -19 -6 -38 14 l-24 26 30 -7 c17 -4 34 -11 38 -15z"/>
<path d="M346 1324 c-4 -10 11 -35 41 -70 46 -55 46 -55 17 -49 -85 17 -121
17 -127 2 -4 -11 16 -30 68 -66 40 -28 76 -51 79 -51 3 0 6 7 6 15 0 9 -23 30
-50 47 -28 17 -49 32 -48 34 2 1 29 -3 61 -8 90 -16 97 -7 42 57 -26 30 -45
55 -41 55 3 0 29 -12 57 -26 37 -20 53 -24 61 -16 7 7 10 13 7 16 -5 5 -158
76 -163 76 -2 0 -7 -7 -10 -16z"/>
<path d="M760 1268 c-24 -40 -58 -99 -76 -131 -19 -32 -34 -62 -34 -67 0 -4
70 -8 155 -8 l154 1 -13 26 c-8 14 -38 67 -66 116 -29 50 -59 101 -65 113 -13
23 -14 21 -55 -50z"/>
<path d="M9429 1312 c-8 -15 -42 -75 -76 -134 -35 -59 -63 -109 -63 -111 0 -2
72 -4 160 -4 l160 0 -19 31 c-11 17 -42 71 -70 119 -78 135 -75 132 -92 99z"/>
<path d="M9905 1326 c-48 -15 -45 -14 -95 -22 -22 -4 -40 -12 -40 -19 0 -9 28
-5 103 12 56 14 106 29 112 34 13 13 -32 10 -80 -5z"/>
<path d="M9911 1249 c-92 -21 -133 -38 -93 -39 36 0 212 42 212 52 0 11 -23 9
-119 -13z"/>
<path d="M9995 1186 c-22 -7 -44 -13 -50 -14 -5 -1 -29 -4 -52 -8 -25 -4 -43
-12 -43 -19 0 -10 26 -7 102 12 57 13 107 28 112 33 14 14 -19 12 -69 -4z"/>
<path d="M10068 1124 c-4 -3 -19 -8 -35 -10 -75 -12 -137 -30 -140 -41 -3 -9
5 -9 29 -3 18 5 68 16 111 25 42 9 77 21 77 26 0 10 -33 12 -42 3z"/>
<path d="M43 838 c-43 -74 -113 -67 685 -65 l716 2 1 48 1 47 -692 0 -692 0
-19 -32z"/>
<path d="M8805 823 l2 -48 717 -2 717 -3 -27 50 -27 50 -692 0 -692 0 2 -47z"/>
</g>
</svg>
